<mxfile host="drawio-plugin" modified="2024-04-19T16:02:27.318Z" agent="5.0 (Macintosh; Intel Mac OS X 10_15_7) AppleWebKit/537.36 (KHTML, like Gecko) Chrome/111.0.0.0 Safari/537.36" etag="WXPpA1CFK0CCVWVyTcuN" version="20.5.3" type="embed"><diagram name="Page-1" id="5f0bae14-7c28-e335-631c-24af17079c00"><mxGraphModel dx="1152" dy="677" grid="1" gridSize="10" guides="1" tooltips="1" connect="1" arrows="1" fold="1" page="1" pageScale="1" pageWidth="1100" pageHeight="850" background="none" math="0" shadow="0"><root><mxCell id="0"/><mxCell id="1" parent="0"/><mxCell id="6if9QwEAnKr5EZq6M6pL-5" value="Камера" style="verticalAlign=top;align=left;spacingTop=8;spacingLeft=2;spacingRight=12;shape=cube;size=10;direction=south;fontStyle=4;html=1;whiteSpace=wrap;" parent="1" vertex="1"><mxGeometry x="80" y="330" width="180" height="120" as="geometry"/></mxCell><mxCell id="6if9QwEAnKr5EZq6M6pL-6" value="Отправка сообщений" style="verticalAlign=top;align=left;spacingTop=8;spacingLeft=2;spacingRight=12;shape=cube;size=10;direction=south;fontStyle=4;html=1;whiteSpace=wrap;" parent="1" vertex="1"><mxGeometry x="782" y="512" width="180" height="120" as="geometry"/></mxCell><mxCell id="6if9QwEAnKr5EZq6M6pL-9" value="Наблюдатель" style="verticalAlign=top;align=left;spacingTop=8;spacingLeft=2;spacingRight=12;shape=cube;size=10;direction=south;fontStyle=4;html=1;whiteSpace=wrap;" parent="1" vertex="1"><mxGeometry x="550" y="320" width="180" height="120" as="geometry"/></mxCell><mxCell id="7" value="RabbitMQ" style="shape=process;whiteSpace=wrap;html=1;backgroundOutline=1;" vertex="1" parent="1"><mxGeometry x="360" y="350" width="120" height="70" as="geometry"/></mxCell><mxCell id="11" value="" style="shape=flexArrow;endArrow=classic;html=1;rounded=0;entryX=0;entryY=0.5;entryDx=0;entryDy=0;exitX=0;exitY=0;exitDx=55;exitDy=0;exitPerimeter=0;" edge="1" parent="1" source="6if9QwEAnKr5EZq6M6pL-5" target="7"><mxGeometry width="50" height="50" relative="1" as="geometry"><mxPoint x="250" y="390" as="sourcePoint"/><mxPoint x="270" y="370" as="targetPoint"/></mxGeometry></mxCell><mxCell id="12" value="" style="shape=flexArrow;endArrow=classic;html=1;rounded=0;exitX=1;exitY=0.5;exitDx=0;exitDy=0;entryX=0;entryY=0;entryDx=65;entryDy=180;entryPerimeter=0;" edge="1" parent="1" source="7" target="6if9QwEAnKr5EZq6M6pL-9"><mxGeometry width="50" height="50" relative="1" as="geometry"><mxPoint x="490" y="410" as="sourcePoint"/><mxPoint x="540" y="360" as="targetPoint"/></mxGeometry></mxCell><mxCell id="13" value="" style="shape=flexArrow;endArrow=classic;html=1;rounded=0;entryX=0;entryY=0.5;entryDx=0;entryDy=0;" edge="1" parent="1" target="14"><mxGeometry width="50" height="50" relative="1" as="geometry"><mxPoint x="720" y="380" as="sourcePoint"/><mxPoint x="850" y="367.5" as="targetPoint"/></mxGeometry></mxCell><mxCell id="14" value="RabbitMQ" style="shape=process;whiteSpace=wrap;html=1;backgroundOutline=1;" vertex="1" parent="1"><mxGeometry x="810" y="342.5" width="120" height="75" as="geometry"/></mxCell><mxCell id="15" value="" style="shape=flexArrow;endArrow=classic;html=1;rounded=0;entryX=-0.008;entryY=0.511;entryDx=0;entryDy=0;entryPerimeter=0;" edge="1" parent="1" source="14" target="6if9QwEAnKr5EZq6M6pL-6"><mxGeometry width="50" height="50" relative="1" as="geometry"><mxPoint x="870" y="467.5" as="sourcePoint"/><mxPoint x="870" y="488.21067811865476" as="targetPoint"/></mxGeometry></mxCell><mxCell id="16" value="Postgres" style="shape=cylinder3;whiteSpace=wrap;html=1;boundedLbl=1;backgroundOutline=1;size=15;" vertex="1" parent="1"><mxGeometry x="560" y="532" width="140" height="80" as="geometry"/></mxCell><mxCell id="17" value="" style="shape=flexArrow;endArrow=classic;startArrow=classic;html=1;rounded=0;" edge="1" parent="1" source="6if9QwEAnKr5EZq6M6pL-9"><mxGeometry width="100" height="100" relative="1" as="geometry"><mxPoint x="640" y="540" as="sourcePoint"/><mxPoint x="640" y="530" as="targetPoint"/></mxGeometry></mxCell><mxCell id="20" value="Telegram" style="rounded=1;whiteSpace=wrap;html=1;" vertex="1" parent="1"><mxGeometry x="690" y="690" width="120" height="60" as="geometry"/></mxCell><mxCell id="22" value="" style="endArrow=classic;html=1;rounded=0;entryX=0.75;entryY=0;entryDx=0;entryDy=0;" edge="1" parent="1" source="6if9QwEAnKr5EZq6M6pL-6" target="20"><mxGeometry width="50" height="50" relative="1" as="geometry"><mxPoint x="872" y="682" as="sourcePoint"/><mxPoint x="872" y="702.7106781186548" as="targetPoint"/></mxGeometry></mxCell><mxCell id="23" value="Email" style="rounded=1;whiteSpace=wrap;html=1;" vertex="1" parent="1"><mxGeometry x="840" y="690" width="120" height="60" as="geometry"/></mxCell><mxCell id="24" value="" style="endArrow=classic;html=1;rounded=0;entryX=0.5;entryY=0;entryDx=0;entryDy=0;exitX=0;exitY=0;exitDx=120;exitDy=95;exitPerimeter=0;" edge="1" parent="1" source="6if9QwEAnKr5EZq6M6pL-6" target="23"><mxGeometry width="50" height="50" relative="1" as="geometry"><mxPoint x="835.2203389830509" y="642" as="sourcePoint"/><mxPoint x="790" y="700" as="targetPoint"/></mxGeometry></mxCell><mxCell id="26" style="edgeStyle=orthogonalEdgeStyle;rounded=0;orthogonalLoop=1;jettySize=auto;html=1;entryX=0;entryY=0;entryDx=0;entryDy=85;entryPerimeter=0;" edge="1" parent="1" source="25" target="6if9QwEAnKr5EZq6M6pL-9"><mxGeometry relative="1" as="geometry"/></mxCell><mxCell id="25" value="Web.Api" style="ellipse;shape=cloud;whiteSpace=wrap;html=1;" vertex="1" parent="1"><mxGeometry x="585" y="138" width="120" height="80" as="geometry"/></mxCell></root></mxGraphModel></diagram></mxfile>